<svg xmlns="http://www.w3.org/2000/svg" width="900" height="390" viewBox="0 0 900 390" role="img" aria-labelledby="title desc">
<title id="title">One brief. Independent perspectives.</title><desc id="desc">One brief. Independent perspectives.. README overview; detailed diagrams are linked below.</desc>
<defs><marker id="arrow" viewBox="0 0 10 10" refX="9" refY="5" markerWidth="7" markerHeight="7" orient="auto"><path d="M0 0L10 5L0 10" fill="#7f8cac"/></marker></defs>
<rect width="900" height="390" rx="16" fill="#0f1220"/>
<g font-family="Inter, 'PingFang TC', 'Microsoft JhengHei', system-ui, sans-serif"><text x="450" y="42" text-anchor="middle" font-size="24" fill="#e8ecff">One brief. Independent perspectives.</text><rect x="28" y="155" width="225" height="88" rx="12" fill="#171b2e" stroke="#3ddc84" stroke-width="2"/><text x="140.5" y="187" text-anchor="middle" font-size="19" fill="#3ddc84">Shared brief</text><text x="140.5" y="216" text-anchor="middle" font-size="15" fill="#b9c4e5">Change · notes · rules</text><rect x="325" y="74" width="250" height="76" rx="12" fill="#171b2e" stroke="#5aa8ff" stroke-width="2"/><text x="450" y="106" text-anchor="middle" font-size="19" fill="#5aa8ff">Correctness</text><text x="450" y="135" text-anchor="middle" font-size="15" fill="#b9c4e5">What could break?</text><rect x="325" y="164" width="250" height="76" rx="12" fill="#171b2e" stroke="#5aa8ff" stroke-width="2"/><text x="450" y="196" text-anchor="middle" font-size="19" fill="#5aa8ff">Boundaries</text><text x="450" y="225" text-anchor="middle" font-size="15" fill="#b9c4e5">What happens at the edges?</text><rect x="325" y="254" width="250" height="76" rx="12" fill="#171b2e" stroke="#5aa8ff" stroke-width="2"/><text x="450" y="286" text-anchor="middle" font-size="19" fill="#5aa8ff">Architecture</text><text x="450" y="315" text-anchor="middle" font-size="15" fill="#b9c4e5">Does it fit this project?</text><rect x="647" y="155" width="225" height="88" rx="12" fill="#171b2e" stroke="#ffcf70" stroke-width="2"/><text x="759.5" y="187" text-anchor="middle" font-size="19" fill="#ffcf70">Account for findings</text><text x="759.5" y="216" text-anchor="middle" font-size="15" fill="#b9c4e5">Adopt · reject · follow up</text><path d="M253 199 H286 V112 H313" fill="none" stroke="#7f8cac" stroke-width="2" marker-end="url(#arrow)"/><path d="M286 199 H313" fill="none" stroke="#7f8cac" stroke-width="2" marker-end="url(#arrow)"/><path d="M286 199 V292 H313" fill="none" stroke="#7f8cac" stroke-width="2" marker-end="url(#arrow)"/><path d="M575 112 H610 V199 H635" fill="none" stroke="#7f8cac" stroke-width="2" marker-end="url(#arrow)"/><path d="M575 202 H610" fill="none" stroke="#7f8cac" stroke-width="2" marker-end="url(#arrow)"/><path d="M575 292 H610 V199" fill="none" stroke="#7f8cac" stroke-width="2" marker-end="url(#arrow)"/><text x="450" y="364" text-anchor="middle" font-size="15" fill="#b9c4e5">Illustrative seats; reviewers do not see one another's reports.</text></g></svg>
